<svg width="156" height="152" viewBox="0 0 156 152" fill="none" xmlns="http://www.w3.org/2000/svg">
<path d="M48.7245 61.0825C59.6939 51.1399 76.3517 36.9398 76.3517 36.9398C86.8255 29.225 81.4872 58.901 80.679 64.5786C79.872 70.2563 78.0465 71.5574 78.0465 71.5574C71.34 79.8694 50.8833 93.3018 34.3057 104.094C17.7285 114.889 14.9372 118.746 14.9372 118.746C0.830952 103.832 37.7559 71.0241 48.7245 61.0825ZM87.9459 10.2418C87.9459 10.2418 89.8646 14.6067 90.8515 34.4721C91.8369 54.3376 93.1511 78.9074 96.9419 88.9185C96.9419 88.9185 97.1473 91.159 101.62 94.7032C106.098 98.248 128.929 117.744 127.536 104.747C127.536 104.747 123.664 83.1073 120.605 68.5628C117.546 54.0197 107.815 5.38912 87.9459 10.2418ZM146.164 127.869C146.164 127.869 141.455 127.361 123.891 118.291C106.324 109.218 84.5564 98.0806 74.058 96.3839C74.058 96.3839 72.0286 95.4424 66.7466 97.5752C61.4626 99.7087 33.2919 109.888 45.1577 115.171C45.1577 115.171 65.6904 122.61 79.7171 127.212C93.7462 131.815 140.402 147.637 146.164 127.869Z" fill="url(#paint0_linear_13_200)"/>
<defs>
<linearGradient id="paint0_linear_13_200" x1="8.27073" y1="93.2159" x2="135.178" y2="69.3788" gradientUnits="userSpaceOnUse">
<stop offset="0.0014" stop-color="#3A23FF"/>
<stop offset="0.1358" stop-color="#3829FF"/>
<stop offset="0.3154" stop-color="#313AFF"/>
<stop offset="0.5207" stop-color="#2556FF"/>
<stop offset="0.7449" stop-color="#167DFF"/>
<stop offset="0.9822" stop-color="#02AEFF"/>
<stop offset="1" stop-color="#00B2FF"/>
</linearGradient>
</defs>
</svg>
